# Blender v2.78 (sub 0) OBJ File: ''
# www.blender.org
mtllib simple_space_ship.mtl
o pCube1_Untitled
v -0.348065 0.027049 -0.095126
v -0.317811 -0.032998 -0.124588
v -0.348356 -0.002811 -0.065049
v -0.348333 0.507274 -0.066898
v -0.317786 0.537026 -0.126653
v -0.348046 0.477196 -0.096757
v -0.349536 -0.002368 0.057319
v -0.320147 -0.032120 0.117652
v -0.349823 0.027710 0.087178
v -0.349803 0.477857 0.085547
v -0.320122 0.537904 0.115587
v -0.349513 0.507717 0.055471
v 0.420004 0.027703 0.094602
v 0.389744 -0.032126 0.124498
v 0.420291 -0.002375 0.064742
v 0.420314 0.507711 0.062894
v 0.389769 0.537897 0.122432
v 0.420024 0.477850 0.092971
v 0.421471 -0.002818 -0.057626
v 0.392080 -0.033004 -0.117742
v 0.421762 0.027043 -0.087703
v 0.421781 0.477189 -0.089334
v 0.392105 0.537019 -0.119808
v 0.421494 0.507267 -0.059474
v -1.206717 0.205548 0.078271
v -1.206427 0.229579 0.048216
v -1.234995 0.205440 0.048028
v -1.233815 0.204997 -0.074341
v -1.205247 0.229136 -0.074153
v -1.204959 0.204888 -0.104033
v -1.130259 0.027057 -0.102668
v -1.070613 -0.002804 -0.072014
v -1.100583 -0.032773 -0.072194
v -1.101763 -0.032330 0.050174
v -1.071793 -0.002361 0.050355
v -1.132017 0.027717 0.079636
v 1.278671 0.204865 -0.080084
v 1.278383 0.229114 -0.050204
v 1.306949 0.204974 -0.049841
v 1.305769 0.205417 0.072528
v 1.277203 0.229557 0.072165
v 1.276913 0.205526 0.102220
v 1.202198 0.027696 0.102144
v 1.142549 -0.002381 0.071707
v 1.172516 -0.032350 0.072105
v 1.173696 -0.032794 -0.050264
v 1.143729 -0.002824 -0.050662
v 1.203956 0.027036 -0.080160
v -1.130284 -0.527656 -0.100659
v -1.100605 -0.527548 -0.070402
v -1.130574 -0.557517 -0.070582
v -1.131754 -0.557073 0.051786
v -1.101784 -0.527104 0.051967
v -1.132041 -0.526995 0.081646
v -1.267366 -0.557072 0.050479
v -1.267654 -0.526994 0.080338
v -1.297333 -0.527102 0.050081
v -1.266186 -0.557515 -0.071890
v -1.296153 -0.527546 -0.072287
v -1.265896 -0.527655 -0.101966
v 1.203641 -0.557538 -0.048074
v 1.173674 -0.527568 -0.048471
v 1.203931 -0.527677 -0.078150
v 1.202173 -0.527016 0.104154
v 1.172494 -0.527125 0.073897
v 1.202461 -0.557094 0.074295
v 1.339253 -0.557539 -0.046766
v 1.339543 -0.527678 -0.076843
v 1.369223 -0.527570 -0.046586
v 1.338073 -0.557095 0.075602
v 1.368043 -0.527126 0.075783
v 1.337785 -0.527018 0.105462
v -0.028081 -1.530779 0.156003
v -0.088057 -1.533210 0.096415
v -0.018227 -1.590203 0.092248
v -0.321041 -0.491497 0.209936
v -0.259917 -0.491274 0.272250
v -0.017766 -1.590574 -0.009972
v -0.086929 -1.533752 -0.017574
v -0.026310 -1.532609 -0.076159
v -0.254946 -0.493162 -0.248620
v -0.317208 -0.492938 -0.187548
v 0.089852 -1.590575 -0.008934
v 0.099672 -1.532610 -0.074945
v 0.159150 -1.533754 -0.015201
v 0.392683 -0.492944 -0.180703
v 0.331611 -0.493167 -0.242964
v 0.088343 -1.590204 0.093276
v 0.158080 -1.533212 0.098789
v 0.096966 -1.530780 0.157209
v 0.326536 -0.491280 0.277905
v 0.388850 -0.491504 0.216781
v 0.326667 0.665447 0.273714
v -0.259946 0.665452 0.268058
v 0.331690 0.663560 -0.247155
v -0.254924 0.663565 -0.252812
v -0.282856 0.725879 -0.067617
v -0.253162 0.725772 -0.096743
v -0.253156 0.875278 -0.097284
v -0.282849 0.875385 -0.068158
v -0.253436 0.956649 -0.068169
v -0.254920 0.726433 0.085562
v -0.284046 0.726327 0.055868
v -0.254626 0.957096 0.055316
v -0.284040 0.875833 0.055327
v -0.254914 0.875939 0.085020
v -0.028486 0.726324 0.058333
v -0.058179 0.726431 0.087459
v -0.057885 0.957095 0.057213
v -0.058172 0.875937 0.086917
v -0.028479 0.875831 0.057791
v -0.056421 0.725771 -0.094846
v -0.027295 0.725877 -0.065152
v -0.056695 0.956647 -0.066272
v -0.027288 0.875383 -0.065694
v -0.056415 0.875277 -0.095387
v 0.128421 0.726430 0.089258
v 0.099295 0.726323 0.059565
v 0.128715 0.957093 0.059012
v 0.099301 0.875829 0.059023
v 0.128427 0.875936 0.088716
v 0.100485 0.725876 -0.063920
v 0.130179 0.725769 -0.093046
v 0.130185 0.875275 -0.093588
v 0.100492 0.875382 -0.064462
v 0.129905 0.956645 -0.064473
v 0.354855 0.726321 0.062029
v 0.325162 0.726428 0.091155
v 0.325456 0.957091 0.060910
v 0.325169 0.875934 0.090614
v 0.354862 0.875827 0.061488
v 0.326920 0.725767 -0.091149
v 0.356046 0.725873 -0.061456
v 0.326647 0.956644 -0.062576
v 0.356053 0.875380 -0.061998
v 0.326927 0.875273 -0.091691
v -0.373424 0.745684 0.205024
v -0.300920 0.706679 0.226135
v -0.316450 0.798658 0.205385
v -0.312616 0.797217 -0.192207
v -0.296695 0.705091 -0.211987
v -0.369590 0.744243 -0.192564
v 0.384371 0.798652 0.212143
v 0.368442 0.706673 0.232590
v 0.441340 0.745677 0.212881
v 0.445174 0.744236 -0.184707
v 0.372666 0.705085 -0.205532
v 0.388205 0.797211 -0.185449
vt 0.9874 0.9023
vt 0.9748 0.6958
vt 0.9874 0.6766
vt 0.2317 0.7816
vt 0.2191 0.8769
vt 0.2191 0.7747
vt 0.9748 0.9042
vt 0.8981 0.9148
vt 0.9233 0.9042
vt 0.9974 0.0000
vt 0.9848 0.2474
vt 0.9848 0.0011
vt 0.2443 0.8677
vt 0.3210 0.8769
vt 0.9107 0.9023
vt 0.9234 0.6958
vt 0.3210 0.7747
vt 0.3084 0.8624
vt 0.3084 0.7816
vt 0.9207 0.0000
vt 0.9333 0.2474
vt 0.9207 0.2465
vt 0.5120 1.0000
vt 0.4994 0.7897
vt 0.5120 0.7743
vt 0.5246 0.7870
vt 0.5120 0.8863
vt 0.5120 0.7743
vt 0.5887 0.7812
vt 0.5372 0.7812
vt 0.8314 0.2758
vt 0.8441 0.0095
vt 0.8441 0.2770
vt 0.8188 0.2871
vt 0.8955 0.2770
vt 0.9207 0.2871
vt 0.4353 1.0000
vt 0.4479 0.7897
vt 0.4479 0.9980
vt 0.6139 0.7743
vt 0.6013 0.8755
vt 0.6013 0.7870
vt 0.9081 0.2758
vt 0.8955 0.0095
vt 0.9081 0.0086
vt 0.6265 0.7823
vt 0.6139 0.9178
vt 0.6139 0.7786
vt 0.6265 0.7743
vt 0.6780 0.7823
vt 0.6906 0.9178
vt 0.6780 0.9217
vt 0.3850 0.8787
vt 0.3976 0.7806
vt 0.3976 0.8895
vt 0.3850 0.8856
vt 0.3336 0.8787
vt 0.3210 0.7806
vt 0.3336 0.7815
vt 0.8314 0.2871
vt 0.8188 0.4300
vt 0.8188 0.2880
vt 0.8441 0.0000
vt 0.8955 0.0000
vt 0.8829 0.2871
vt 0.8955 0.4300
vt 0.8829 0.4290
vt 0.0126 0.7960
vt 0.0000 0.8809
vt 0.0000 0.7814
vt 0.4479 0.7791
vt 0.4994 0.7791
vt 0.0641 0.7960
vt 0.0767 0.8809
vt 0.0641 0.8847
vt 0.1478 0.7844
vt 0.1893 0.7969
vt 0.1497 0.7969
vt 0.3850 0.7815
vt 0.3336 0.7747
vt 0.3850 0.7747
vt 0.1497 0.7210
vt 0.1873 0.7334
vt 0.1478 0.7334
vt 0.1980 0.7334
vt 0.1873 0.7844
vt 0.4100 0.7680
vt 0.3685 0.7555
vt 0.4080 0.7555
vt 0.4187 0.7046
vt 0.4187 0.7555
vt 0.4080 0.7046
vt 0.3705 0.6921
vt 0.4100 0.6921
vt 0.8314 0.4290
vt 0.8829 0.4358
vt 0.8314 0.4358
vt 0.6265 0.9217
vt 0.9333 0.0011
vt 0.7309 0.5070
vt 0.6915 0.5223
vt 0.5915 0.4597
vt 0.1478 0.5141
vt 0.1084 0.5294
vt 0.0084 0.4668
vt 0.4994 0.9980
vt 0.3685 0.7046
vt 0.3668 0.7274
vt 0.3275 0.7121
vt 0.3668 0.4601
vt 0.0126 0.8847
vt 0.5831 0.7270
vt 0.5437 0.7117
vt 0.5831 0.4597
vt 1.0000 0.9148
vt 0.2317 0.8624
vt 0.2957 0.8677
vt 0.5372 0.8813
vt 0.5246 0.8755
vt 0.6139 0.8863
vt 0.5887 0.8813
vt 0.6780 0.7743
vt 0.6906 0.7786
vt 0.4273 0.4793
vt 0.4273 0.4986
vt 0.4187 0.4917
vt 0.4187 0.5247
vt 0.4272 0.5178
vt 0.4272 0.5370
vt 0.8314 0.0086
vt 0.4272 0.4986
vt 0.4272 0.5178
vt 0.4187 0.5108
vt 0.4187 0.4670
vt 0.4273 0.4601
vt 0.4273 0.4793
vt 0.1893 0.7210
vt 0.1980 0.7844
vt 0.7851 0.5107
vt 0.7475 0.5374
vt 0.7487 0.5107
vt 0.8026 0.5353
vt 0.9206 0.4597
vt 0.9385 0.4854
vt 0.7787 0.5799
vt 0.7785 0.5374
vt 0.3669 0.4767
vt 0.3843 0.4746
vt 0.3928 0.6921
vt 0.7852 0.6074
vt 0.7473 0.5799
vt 0.9385 0.6509
vt 0.9206 0.6766
vt 0.4187 0.4601
vt 0.4102 0.6776
vt 0.3928 0.6755
vt 0.7309 0.5353
vt 0.1491 0.0000
vt 0.1931 0.2135
vt 0.1242 0.0016
vt 0.2191 0.4388
vt 0.2017 0.4482
vt 0.0762 0.0017
vt 0.0000 0.2116
vt 0.0514 0.0002
vt 0.0260 0.2135
vt 0.0174 0.4482
vt 0.0000 0.4388
vt 0.6516 0.4597
vt 0.4353 0.4597
vt 0.4530 0.4331
vt 0.8188 0.1572
vt 0.7206 0.0000
vt 0.7685 0.0000
vt 0.4177 0.2053
vt 0.3078 0.0000
vt 0.3466 0.0000
vt 0.6340 0.2047
vt 0.5242 0.0000
vt 0.5628 0.0000
vt 0.4530 0.2047
vt 0.2367 0.4337
vt 0.2367 0.2053
vt 0.1931 0.4582
vt 0.6516 0.3724
vt 0.6516 0.1572
vt 0.8026 0.5827
vt 0.7485 0.6074
vt 0.7309 0.5827
vt 0.7309 0.9058
vt 0.8981 0.6957
vt 0.8981 0.9058
vt 0.1185 0.8573
vt 0.0952 0.8696
vt 0.0914 0.8573
vt 0.3112 0.8769
vt 0.2950 0.9371
vt 0.2950 0.8769
vt 0.0767 0.8696
vt 0.0952 0.9210
vt 0.0767 0.9210
vt 0.1223 0.9210
vt 0.0914 0.9332
vt 0.1641 0.8728
vt 0.1478 0.9329
vt 0.1478 0.8728
vt 0.1926 0.8091
vt 0.1639 0.7969
vt 0.1936 0.7969
vt 0.1478 0.8091
vt 0.1629 0.8605
vt 0.1478 0.8605
vt 0.1936 0.8728
vt 0.1926 0.8605
vt 0.8993 0.2871
vt 0.9226 0.2993
vt 0.8955 0.2993
vt 0.7718 0.3891
vt 0.7555 0.4493
vt 0.7555 0.3891
vt 0.9411 0.3508
vt 0.9226 0.3508
vt 0.8955 0.3508
vt 0.9264 0.3630
vt 0.8993 0.3630
vt 0.2191 0.9371
vt 0.2353 0.8769
vt 0.2353 0.9371
vt 0.1225 0.7814
vt 0.0919 0.7937
vt 0.0928 0.7814
vt 0.0767 0.7937
vt 0.0919 0.8451
vt 0.0767 0.8451
vt 0.1215 0.8451
vt 0.0928 0.8573
vt 0.7555 0.3891
vt 0.7036 0.4481
vt 0.7036 0.3891
vt 0.6516 0.4481
vt 0.7036 0.3891
vt 0.7036 0.4481
vt 0.1939 0.8728
vt 0.1641 0.9329
vt 0.1629 0.8091
vt 0.2651 0.9371
vt 0.8016 0.3891
vt 0.7718 0.4493
vt 0.2651 0.8769
vt 0.1639 0.8728
vt 0.9411 0.2993
vt 0.9264 0.2871
vt 0.4177 0.4337
vt 0.2191 0.4601
vt 0.8188 0.3724
vt 0.6516 0.3891
vt 0.7309 0.6766
vt 0.7309 0.6957
vt 0.9604 0.4318
vt 0.9385 0.4410
vt 0.9422 0.4225
vt 0.1514 0.7210
vt 0.1478 0.7025
vt 0.1696 0.7117
vt 0.1952 0.7209
vt 0.1915 0.7024
vt 0.2134 0.7116
vt 0.1915 0.4761
vt 0.1696 0.4853
vt 0.1733 0.4668
vt 0.9974 0.2465
vt 0.9108 0.6766
vt 0.4353 0.7743
vt 0.3336 0.8856
vt 0.3210 0.8895
vt 0.8955 0.2880
vt 0.0767 0.7814
vt 0.3705 0.7680
vt 0.7309 0.7743
vt 0.5831 0.5003
vt 0.6429 0.7564
vt 0.1478 0.7814
vt 0.0000 0.5074
vt 0.0598 0.7635
vt 0.2275 0.7747
vt 0.2789 0.4780
vt 0.2191 0.7341
vt 0.4438 0.7743
vt 0.4952 0.4776
vt 0.4353 0.7337
vt 0.9604 0.6766
vt 0.3668 0.6842
vt 0.3928 0.4680
vt 0.1696 0.4668
vt 0.2191 0.2116
vt 0.1915 0.7210
vt 0.2134 0.4668
vt 0.6340 0.4331
vt 0.0259 0.4668
vt 0.3928 0.4601
vt 0.0259 0.4582
vt 0.1223 0.8696
vt 0.3112 0.9371
vt 0.1185 0.9332
vt 0.2191 0.8769
vt 0.1215 0.7937
vt 0.1225 0.8573
vt 0.7555 0.4481
vt 0.6516 0.3891
vt 0.1939 0.9329
vt 0.2651 0.8769
vt 0.8016 0.4493
vt 0.2651 0.9371
vt 0.4353 0.4601
vt 0.1931 0.4668
vt 0.4187 0.6921
vt 0.8188 0.3891
vt 0.8981 0.6766
vn 0.0068 -0.7097 -0.7045
vn -0.7003 -0.0026 -0.7139
vn -0.7071 -0.7071 -0.0043
vn -0.2174 0.6884 -0.6920
vn -0.2339 0.7521 -0.6161
vn -0.2170 0.6867 -0.6938
vn -0.7070 0.7071 -0.0094
vn -0.0068 -0.7045 0.7096
vn -0.7139 0.0026 0.7003
vn -0.2307 0.6933 0.6827
vn -0.2457 0.7565 0.6060
vn -0.2461 0.7582 0.6038
vn 0.7003 0.0026 0.7139
vn 0.7070 -0.7071 0.0094
vn 0.2175 0.6933 0.6870
vn 0.2340 0.7565 0.6107
vn 0.2171 0.6917 0.6888
vn 0.7071 0.7071 0.0043
vn 0.7139 -0.0026 -0.7003
vn 0.2308 0.6884 -0.6877
vn 0.2457 0.7521 -0.6115
vn 0.2461 0.7538 -0.6093
vn -0.7285 0.0626 0.6821
vn -0.7132 0.0626 0.6982
vn -0.7291 0.0626 0.6815
vn -0.6454 0.7638 -0.0090
vn -0.7153 0.0576 -0.6965
vn -0.6996 0.0575 -0.7122
vn -0.6990 0.0575 -0.7128
vn 0.7139 -0.0026 -0.7002
vn 0.7285 0.0576 -0.6826
vn 0.7132 0.0575 -0.6986
vn 0.7291 0.0576 -0.6820
vn 0.6454 0.7638 0.0035
vn 0.7153 0.0626 0.6961
vn 0.6996 0.0626 0.7118
vn 0.6990 0.0626 0.7124
vn -0.9964 0.0848 -0.0099
vn 0.9964 0.0847 0.0093
vn -0.3087 0.9511 -0.0064
vn 0.0096 -0.0036 -0.9999
vn -0.0000 -1.0000 0.0036
vn 0.3088 0.9511 -0.0005
vn -0.0096 0.0036 0.9999
vn 1.0000 -0.0000 0.0096
vn -1.0000 0.0000 -0.0096
vn -0.9016 -0.3026 -0.3091
vn -0.9016 0.3004 -0.3113
vn -0.9074 -0.3004 0.2939
vn -0.9074 0.3026 0.2917
vn 0.9016 -0.3004 0.3113
vn 0.9016 0.3026 0.3091
vn 0.9074 -0.3026 -0.2917
vn 0.9074 0.3004 -0.2939
vn -0.5547 0.6525 0.5163
vn -0.5446 0.6487 -0.5316
vn 0.3102 -0.3048 -0.9005
vn 0.2928 -0.2982 0.9085
vn 0.5548 0.6487 -0.5210
vn 0.5447 0.6524 0.5269
vn -0.3102 -0.2982 0.9027
vn -0.2928 -0.3048 -0.9063
vn 0.5829 -0.5794 -0.5697
vn 0.5717 -0.5753 0.5850
vn -0.5829 -0.5752 0.5738
vn -0.5718 -0.5794 -0.5808
vn -0.0066 -0.7320 0.6813
vn -0.6978 -0.1975 0.6885
vn -0.7040 -0.0957 0.7037
vn -0.6975 -0.0885 0.7111
vn -0.6334 -0.7738 -0.0012
vn -0.6336 -0.7736 -0.0015
vn -0.6323 -0.7747 -0.0000
vn -0.7139 0.0025 0.7002
vn -0.4360 -0.0048 0.8999
vn 0.0064 -0.7519 -0.6593
vn -0.6782 -0.2835 -0.6780
vn -0.6830 -0.1084 -0.7224
vn -0.6902 -0.1142 -0.7145
vn -0.4185 -0.0114 -0.9081
vn 0.6335 -0.7736 0.0107
vn 0.6333 -0.7739 0.0110
vn 0.6322 -0.7747 0.0121
vn 0.6911 -0.2835 -0.6648
vn 0.6968 -0.1084 -0.7091
vn 0.7031 -0.2323 -0.6720
vn 0.4360 -0.0114 -0.8999
vn 0.6823 -0.1972 0.7039
vn 0.6903 -0.0957 0.7171
vn 0.6746 -0.2448 0.6964
vn 0.6836 -0.0885 0.7244
vn 0.4186 -0.0049 0.9082
vn 0.7003 0.0025 0.7139
vn 0.1325 0.3680 0.9203
vn -0.1502 0.3680 0.9176
vn -0.1299 0.3765 0.9173
vn -0.9957 -0.0922 -0.0093
vn -0.9761 -0.2174 -0.0086
vn 0.0096 -0.0360 -0.9993
vn 0.0095 -0.1616 -0.9868
vn 0.9760 -0.2174 0.0102
vn 0.9957 -0.0922 0.0099
vn -0.0096 -0.0185 0.9998
vn -0.0096 -0.1132 0.9935
vn -0.0096 -0.0186 0.9998
vn 0.0096 -0.0362 -0.9993
vn 0.9991 -0.0424 0.0098
vn 0.9957 -0.0916 0.0099
vn -0.9991 -0.0423 -0.0095
vn -0.9958 -0.0916 -0.0093
vn -0.6879 -0.2448 0.6833
vn -0.5117 -0.6665 0.5422
vn -0.5017 -0.6818 -0.5324
vn -0.6901 -0.2323 -0.6855
vn 0.5118 -0.6819 -0.5226
vn 0.5011 -0.6665 0.5519
vn 0.0000 1.0000 -0.0036
vn 0.0091 0.3369 -0.9415
vn -0.9403 0.3403 -0.0103
vn -0.0091 0.3437 0.9390
vn 0.9403 0.3403 0.0078
vn -0.6784 0.2454 -0.6925
vn -0.6916 0.2504 0.6775
vn 0.6784 0.2504 0.6907
vn 0.6916 0.2454 -0.6793
vn 0.1300 0.3698 -0.9200
vn -0.1122 0.3698 -0.9223
vn 0.1502 0.3614 -0.9203
vn -0.6724 0.7220 0.1631
vn -0.6806 0.7322 -0.0245
vn -0.6682 0.7199 -0.1878
vn 0.6691 0.7220 0.1760
vn 0.6810 0.7322 -0.0114
vn 0.6806 0.7323 0.0248
vn -0.1803 0.1874 0.9656
vn -0.6809 0.7322 0.0117
vn -0.1616 0.1804 -0.9702
vn 0.1617 0.1874 0.9689
vn 0.6717 0.7199 -0.1749
vn 0.1803 0.1804 -0.9669
vn -0.2343 0.7538 -0.6139
vn -0.2303 0.6917 0.6845
vn 0.2344 0.7582 0.6085
vn 0.2304 0.6867 -0.6895
vn -0.7126 0.0626 0.6988
vn -0.7158 0.0576 -0.6959
vn 0.7126 0.0575 -0.6992
vn 0.7158 0.0626 0.6955
vn -0.6346 -0.7728 -0.0026
vn -0.2836 -0.0082 0.9589
vn -0.2650 -0.0151 -0.9641
vn 0.6345 -0.7728 0.0096
vn 0.7039 -0.1142 -0.7011
vn 0.2836 -0.0151 -0.9588
vn 0.2651 -0.0082 0.9642
vn 0.1122 0.3765 0.9196
vn 0.6774 0.0459 0.7341
vn -0.6915 0.0459 0.7209
vn -0.1324 0.3614 -0.9230
vn 0.6915 0.0406 -0.7213
vn -0.6774 0.0406 -0.7345
usemtl Material.001
s 1
f 1/1/1 32/2/1 31/3/1
f 1/4/2 5/5/2 2/6/2
f 3/7/3 8/8/3 7/9/3
f 6/10/4 29/11/5 4/12/6
f 4/13/7 11/14/7 5/5/7
f 9/15/8 35/16/8 7/9/8
f 8/17/9 10/18/9 9/19/9
f 10/20/10 26/21/11 25/22/12
f 13/23/8 44/24/8 43/25/8
f 13/26/13 17/27/13 14/28/13
f 14/28/14 19/29/14 15/30/14
f 18/31/15 41/32/16 16/33/17
f 17/34/18 24/35/18 23/36/18
f 21/37/1 47/38/1 19/39/1
f 20/40/19 22/41/19 21/42/19
f 22/43/20 38/44/21 37/45/22
f 27/46/23 56/47/24 25/48/25
f 26/49/26 28/50/26 27/46/26
f 28/50/27 60/51/28 59/52/29
f 33/53/30 49/54/19 31/55/30
f 32/56/14 34/57/14 33/53/14
f 34/57/13 54/58/13 53/59/13
f 39/60/31 68/61/32 37/62/33
f 38/44/34 40/63/34 39/64/34
f 40/65/35 72/66/36 71/67/37
f 45/68/9 64/69/9 43/70/9
f 44/24/3 46/71/3 45/72/3
f 46/73/2 63/74/2 62/75/2
f 51/76/1 60/77/1 49/78/1
f 50/79/14 52/80/14 51/81/14
f 54/82/8 55/83/8 52/84/8
f 57/85/3 58/86/3 55/83/3
f 63/87/1 67/88/1 61/89/1
f 61/89/3 65/90/3 62/91/3
f 66/92/8 72/93/8 64/94/8
f 69/95/14 70/96/14 67/97/14
f 27/46/38 59/52/38 57/98/38
f 40/65/39 69/95/39 39/60/39
f 4/12/40 26/21/40 12/99/40
f 30/100/41 31/101/41 60/102/41
f 52/84/42 58/86/42 51/76/42
f 16/33/43 38/44/43 24/35/43
f 42/103/44 43/104/44 72/105/44
f 19/39/42 44/24/42 15/106/42
f 7/9/42 32/2/42 3/7/42
f 61/89/42 70/107/42 66/92/42
f 34/57/45 50/79/45 33/53/45
f 25/108/44 36/109/44 10/110/44
f 46/73/46 65/111/46 45/68/46
f 37/112/41 48/113/41 22/114/41
f 1/1/47 2/115/47 3/7/47
f 4/13/48 5/5/48 6/116/48
f 7/9/49 8/8/49 9/15/49
f 10/18/50 11/14/50 12/117/50
f 13/26/51 14/28/51 15/30/51
f 16/118/52 17/27/52 18/119/52
f 19/29/53 20/40/53 21/42/53
f 22/41/54 23/120/54 24/121/54
f 25/48/55 26/49/55 27/46/55
f 28/50/56 29/122/56 30/123/56
f 31/124/57 32/125/57 33/126/57
f 34/127/58 35/128/58 36/129/58
f 37/45/59 38/44/59 39/64/59
f 40/63/60 41/32/60 42/130/60
f 43/131/61 44/132/61 45/133/61
f 46/134/62 47/135/62 48/136/62
f 49/54/63 50/79/63 51/81/63
f 52/80/64 53/59/64 54/58/64
f 55/83/65 56/137/65 57/85/65
f 58/86/66 59/138/66 60/77/66
f 61/89/66 62/91/66 63/87/66
f 64/94/65 65/90/65 66/92/65
f 67/97/63 68/61/63 69/95/63
f 70/96/64 71/67/64 72/66/64
f 73/139/67 88/140/67 90/141/67
f 74/142/68 77/143/69 76/144/70
f 74/142/71 78/145/72 75/146/73
f 94/147/74 138/148/75 76/149/70
f 80/150/76 83/151/76 78/145/76
f 80/150/77 82/152/78 81/153/79
f 82/154/78 141/155/80 96/156/2
f 83/151/81 89/157/82 88/140/83
f 84/158/84 86/159/85 85/160/86
f 95/161/30 147/162/87 86/159/85
f 89/163/88 91/164/89 90/165/90
f 92/166/91 144/167/92 93/168/93
f 143/169/94 139/170/95 94/171/96
f 76/172/97 79/173/98 74/174/98
f 81/175/99 84/176/100 80/177/100
f 85/160/101 92/166/102 89/163/101
f 91/178/103 73/179/104 90/180/104
f 75/146/42 83/151/42 88/140/42
f 91/178/103 94/171/44 77/181/105
f 81/175/99 95/182/41 87/183/106
f 146/184/107 92/166/102 86/159/108
f 76/172/97 142/185/109 82/186/110
f 73/139/111 74/142/68 75/146/112
f 78/145/113 79/187/114 80/150/77
f 83/151/115 84/188/84 85/189/86
f 88/140/116 89/157/88 90/141/90
f 139/190/117 148/191/117 140/192/117
f 98/193/2 100/194/2 99/195/2
f 101/196/118 116/197/118 99/198/118
f 101/199/119 105/200/119 104/201/119
f 103/202/9 106/203/9 105/200/9
f 106/204/120 109/205/120 104/206/120
f 107/207/13 110/208/13 108/209/13
f 109/210/121 115/211/121 114/212/121
f 112/213/19 115/211/19 113/214/19
f 117/215/9 120/216/9 118/217/9
f 121/218/120 129/219/120 119/220/120
f 120/216/119 126/221/119 125/222/119
f 122/223/2 124/224/2 123/225/2
f 126/226/118 136/227/118 124/228/118
f 128/229/13 131/230/13 130/231/13
f 129/232/121 135/233/121 134/234/121
f 133/235/19 136/236/19 135/233/19
f 104/237/117 114/238/117 101/239/117
f 119/240/117 134/241/117 126/242/117
f 100/194/46 103/202/46 105/200/46
f 102/243/44 110/244/44 106/204/44
f 111/245/45 113/214/45 115/211/45
f 112/246/41 99/198/41 116/197/41
f 125/222/46 118/217/46 120/216/46
f 117/247/44 130/248/44 121/218/44
f 131/230/45 133/235/45 135/233/45
f 132/249/41 124/228/41 136/227/41
f 99/195/122 100/194/122 101/199/122
f 104/201/123 105/200/123 106/203/123
f 109/210/124 110/208/124 111/245/124
f 114/212/125 115/211/125 116/250/125
f 119/251/123 120/216/123 121/252/123
f 124/224/122 125/222/122 126/221/122
f 129/232/124 130/231/124 131/230/124
f 134/234/125 135/233/125 136/236/125
f 95/182/126 96/253/127 148/254/128
f 137/255/129 140/256/130 142/185/131
f 145/257/132 148/191/133 143/258/134
f 137/259/129 138/260/135 139/261/136
f 140/262/130 141/263/137 142/264/131
f 143/265/134 144/266/138 145/267/132
f 146/268/139 147/269/140 148/270/133
f 1/1/1 3/7/1 32/2/1
f 1/4/2 6/116/2 5/5/2
f 3/7/3 2/115/3 8/8/3
f 6/10/4 30/271/141 29/11/5
f 4/13/7 12/117/7 11/14/7
f 9/15/8 36/272/8 35/16/8
f 8/17/9 11/14/9 10/18/9
f 10/20/10 12/99/142 26/21/11
f 13/23/8 15/106/8 44/24/8
f 13/26/13 18/119/13 17/27/13
f 14/28/14 20/40/14 19/29/14
f 18/31/15 42/130/143 41/32/16
f 17/34/18 16/33/18 24/35/18
f 21/37/1 48/273/1 47/38/1
f 20/40/19 23/120/19 22/41/19
f 22/43/20 24/35/144 38/44/21
f 27/46/23 57/98/145 56/47/24
f 26/49/26 29/122/26 28/50/26
f 28/50/27 30/123/146 60/51/28
f 33/53/30 50/79/19 49/54/19
f 32/56/14 35/274/14 34/57/14
f 34/57/13 36/275/13 54/58/13
f 39/60/31 69/95/147 68/61/32
f 38/44/34 41/32/34 40/63/34
f 40/65/35 42/276/148 72/66/36
f 45/68/9 65/111/9 64/69/9
f 44/24/3 47/38/3 46/71/3
f 46/73/2 48/277/2 63/74/2
f 51/76/1 58/86/1 60/77/1
f 50/79/14 53/59/14 52/80/14
f 54/82/8 56/137/8 55/83/8
f 57/85/3 59/138/3 58/86/3
f 63/87/1 68/278/1 67/88/1
f 61/89/3 66/92/3 65/90/3
f 66/92/8 70/107/8 72/93/8
f 69/95/14 71/67/14 70/96/14
f 27/46/38 28/50/38 59/52/38
f 40/65/39 71/67/39 69/95/39
f 4/12/40 29/11/40 26/21/40
f 30/100/41 6/279/41 31/101/41
f 31/101/41 49/280/41 60/102/41
f 6/279/41 1/281/41 31/101/41
f 52/84/42 55/83/42 58/86/42
f 16/33/43 41/32/43 38/44/43
f 42/103/44 18/282/44 43/104/44
f 43/104/44 64/283/44 72/105/44
f 18/282/44 13/284/44 43/104/44
f 19/39/42 47/38/42 44/24/42
f 7/9/42 35/16/42 32/2/42
f 61/89/42 67/88/42 70/107/42
f 34/57/45 53/59/45 50/79/45
f 25/108/44 56/285/44 36/109/44
f 36/109/44 9/286/44 10/110/44
f 56/285/44 54/287/44 36/109/44
f 46/73/46 62/75/46 65/111/46
f 37/112/41 68/288/41 48/113/41
f 48/113/41 21/289/41 22/114/41
f 68/288/41 63/290/41 48/113/41
f 73/139/67 75/146/67 88/140/67
f 74/142/68 73/139/111 77/143/69
f 74/142/71 79/187/149 78/145/72
f 137/259/150 76/291/70 138/260/75
f 77/292/69 94/147/74 76/149/70
f 80/150/76 84/188/76 83/151/76
f 80/150/77 79/187/114 82/152/78
f 96/156/2 81/293/79 82/154/78
f 82/294/78 142/264/151 141/263/80
f 83/151/81 85/189/152 89/157/82
f 84/158/84 87/295/153 86/159/85
f 146/268/154 86/296/85 147/269/87
f 87/295/153 95/161/30 86/159/85
f 89/163/88 92/166/91 91/164/89
f 93/168/93 91/164/89 92/166/91
f 92/297/91 145/267/155 144/266/92
f 94/171/96 93/298/156 143/169/94
f 144/167/157 143/299/94 93/168/156
f 139/300/95 138/148/158 94/147/96
f 76/172/97 82/186/110 79/173/98
f 81/175/99 87/183/106 84/176/100
f 85/160/101 86/159/108 92/166/102
f 91/178/103 77/181/105 73/179/104
f 75/146/42 78/145/42 83/151/42
f 91/178/103 93/298/44 94/171/44
f 81/175/99 96/253/41 95/182/41
f 146/184/107 145/301/107 92/166/102
f 76/172/97 137/255/109 142/185/109
f 139/190/117 143/258/117 148/191/117
f 98/193/2 97/302/2 100/194/2
f 101/196/118 114/303/118 116/197/118
f 101/199/119 100/194/119 105/200/119
f 103/202/9 102/304/9 106/203/9
f 106/204/120 110/244/120 109/205/120
f 107/207/13 111/245/13 110/208/13
f 109/210/121 111/245/121 115/211/121
f 112/213/19 116/250/19 115/211/19
f 117/215/9 121/252/9 120/216/9
f 121/218/120 130/248/120 129/219/120
f 120/216/119 119/251/119 126/221/119
f 122/223/2 125/222/2 124/224/2
f 126/226/118 134/305/118 136/227/118
f 128/229/13 127/306/13 131/230/13
f 129/232/121 131/230/121 135/233/121
f 133/235/19 132/307/19 136/236/19
f 104/237/117 109/308/117 114/238/117
f 119/240/117 129/309/117 134/241/117
f 100/194/46 97/302/46 103/202/46
f 102/243/44 108/310/44 110/244/44
f 111/245/45 107/207/45 113/214/45
f 112/246/41 98/311/41 99/198/41
f 125/222/46 122/223/46 118/217/46
f 117/247/44 128/312/44 130/248/44
f 131/230/45 127/306/45 133/235/45
f 132/249/41 123/313/41 124/228/41
f 140/314/159 148/254/128 96/253/127
f 147/162/160 95/161/126 148/315/128
f 96/156/127 141/155/161 140/316/159
f 137/255/129 139/317/136 140/256/130
f 145/257/132 146/318/139 148/191/133
